<svg viewBox="0 0 640 512" xmlns="http://www.w3.org/2000/svg"><path d="m32 119.4c-19.13-11-32-31.71-32-55.4 0-35.35 28.65-64 64-64 23.69 0 44.4 12.87 55.4 32h209.2c11-19.13 31.7-32 55.4-32 35.3 0 64 28.65 64 64 0 23.69-12.9 44.4-32 55.4v113.2c19.1 11 32 31.7 32 55.4 0 35.3-28.7 64-64 64-23.7 0-44.4-12.9-55.4-32h-209.2c-11 19.1-31.71 32-55.4 32-35.35 0-64-28.7-64-64 0-23.7 12.87-44.4 32-55.4zm64 0v113.2c9.7 5.6 17.8 13.7 23.4 23.4h209.2c5.6-9.7 13.7-17.8 23.4-23.4v-113.2c-9.7-5.6-17.8-13.7-23.4-23.4h-209.2c-5.6 9.7-13.7 17.8-23.4 23.4zm215.4 360.6c-11 19.1-31.7 32-55.4 32-35.3 0-64-28.7-64-64 0-23.7 12.9-44.4 32-55.4v-40.6h64v40.6c9.7 5.6 17.8 13.7 23.4 23.4h209.2c5.6-9.7 13.7-17.8 23.4-23.4v-113.2c-9.7-5.6-17.8-13.7-23.4-24.3h-46.1c-5.4-14.5-14.6-28-26.5-38.7v-25.3h72.6c11-18.2 31.7-32 55.4-32 35.3 0 64 29.6 64 64 0 24.6-12.9 45.3-32 56.3v113.2c19.1 11 32 31.7 32 55.4 0 35.3-28.7 64-64 64-23.7 0-44.4-12.9-55.4-32z"/></svg>